<svg xmlns="http://www.w3.org/2000/svg" width="14" height="13">
    <path fill="#52B8F0" fill-rule="evenodd" d="M11.918.559H4.929c-.582 0-1.165.574-1.165 1.149v1.471H1.871c-.582 0-1.165.575-1.165 1.15V11.221c0 .574.583 1.148 1.165 1.148h6.99c.582 0 1.164-.574 1.164-1.146V9.748h1.893c.583 0 1.165-.574 1.165-1.146V1.708c0-.575-.582-1.149-1.165-1.149zM8.861 8.6v2.045c0 .288-.292.576-.583.576H2.454c-.292 0-.583-.288-.583-.576V4.903c0-.288.291-.574.583-.574h5.824c.291 0 .583.286.583.574V8.6zm3.057-.574c0 .287-.291.574-.581.574h-1.312V4.329c0-.575-.582-1.15-1.164-1.15H4.929v-.897c0-.287.291-.574.583-.574h5.825c.29 0 .581.287.581.574v5.744z"/>
</svg>
