<?xml version="1.0" encoding="utf-8"?>
<!-- Generator: Adobe Illustrator 21.1.0, SVG Export Plug-In . SVG Version: 6.00 Build 0)  -->
<svg version="1.1" id="Layer_1" xmlns="http://www.w3.org/2000/svg" xmlns:xlink="http://www.w3.org/1999/xlink" x="0px" y="0px"
	 viewBox="0 0 160.5 57.5" style="enable-background:new 0 0 160.5 57.5;" xml:space="preserve">
<style type="text/css">
	.st0{fill:#1EBCF2;}
	.st1{fill:#6D7073;}
	.st2{fill:none;stroke:#1EBCF2;stroke-width:1.5;stroke-linecap:round;}
	.st3{fill:#1F2123;stroke:#1EBCF2;stroke-width:1.5;stroke-linecap:round;}
	.st4{fill:#1EBCF2;stroke:#1F2123;stroke-width:1.5;stroke-linecap:round;}
	.st5{fill:#FFFFFF;}
	.st6{fill:none;stroke:#6D7073;stroke-miterlimit:10;}
</style>
<path class="st0" d="M33.6,29.5c0,0.8-0.6,1.4-1.4,1.4c0,0,0,0,0,0h-3.8c-0.8,0-1.4-0.6-1.4-1.4c0-0.8,0.6-1.4,1.4-1.4h3.8
	C32.9,28.1,33.6,28.7,33.6,29.5C33.6,29.5,33.6,29.5,33.6,29.5z M42.5,38.4c-0.8,0-1.4,0.6-1.4,1.4c0,0,0,0,0,0v3.8
	c0,0.8,0.6,1.4,1.4,1.4c0.8,0,1.4-0.6,1.4-1.4v-3.8C43.9,39.1,43.3,38.4,42.5,38.4C42.5,38.4,42.5,38.4,42.5,38.4z M48.9,37.8
	c-0.4-0.7-1.3-0.9-1.9-0.5c-0.7,0.4-0.9,1.3-0.5,1.9l1.9,3.3c0.4,0.7,1.3,0.9,1.9,0.5c0.7-0.4,0.9-1.3,0.5-1.9l0,0L48.9,37.8z
	 M55.4,35.3l-3.3-1.9c-0.7-0.4-1.5-0.2-1.9,0.5c-0.4,0.7-0.2,1.5,0.5,1.9l0,0l3.3,1.9c0.7,0.4,1.5,0.2,1.9-0.5
	C56.3,36.6,56.1,35.7,55.4,35.3z M56.6,28.1h-3.8c-0.8,0-1.4,0.6-1.4,1.4c0,0.8,0.6,1.4,1.4,1.4c0,0,0,0,0,0h3.8
	c0.7-0.4,0.9-1.4,0.5-2C57,28.6,56.8,28.4,56.6,28.1L56.6,28.1z M50.2,25c0.4,0.7,1.2,0.9,1.9,0.5c0,0,0,0,0,0l3.3-1.9
	c0.7-0.4,0.9-1.3,0.5-1.9c-0.4-0.7-1.3-0.9-1.9-0.5l-3.3,1.9C50.1,23.5,49.8,24.4,50.2,25C50.2,25,50.2,25,50.2,25L50.2,25z
	 M47,21.8c0.7,0.4,1.5,0.2,1.9-0.5l1.9-3.3c0.4-0.7,0.2-1.5-0.5-1.9c-0.7-0.4-1.5-0.2-1.9,0.5l0,0l-1.9,3.3
	C46.1,20.5,46.3,21.4,47,21.8C47,21.8,47,21.8,47,21.8L47,21.8z M42.5,14c-0.8,0-1.4,0.6-1.4,1.4c0,0,0,0,0,0v3.8
	c0,0.8,0.6,1.4,1.4,1.4c0.8,0,1.4-0.6,1.4-1.4c0,0,0,0,0,0v-3.8C43.9,14.6,43.3,14,42.5,14C42.5,14,42.5,14,42.5,14L42.5,14z
	 M36.7,16.6c-0.4-0.7-1.3-0.9-1.9-0.5c-0.7,0.4-0.9,1.3-0.5,1.9l1.9,3.3c0.4,0.7,1.3,0.9,1.9,0.5c0.7-0.4,0.9-1.3,0.5-1.9l0,0
	L36.7,16.6z M34.3,23.1L31,21.2c-0.7-0.4-1.5-0.2-1.9,0.5c-0.4,0.7-0.2,1.5,0.5,1.9l0,0l3.3,1.9c0.7,0.4,1.5,0.2,1.9-0.5
	C35.2,24.4,34.9,23.5,34.3,23.1C34.3,23.1,34.3,23.1,34.3,23.1L34.3,23.1z"/>
<path class="st1" d="M114.6,39.8l11-11.2c0.7-0.7,0.7-1.8,0-2.5s-1.8-0.7-2.5,0l0,0l-6.8,7V14.7c0-0.9-0.7-1.7-1.6-1.7
	c0,0-0.1,0-0.1,0c-1,0-1.7,0.8-1.7,1.7c0,0,0,0,0,0V33l-7-7c-0.7-0.7-1.8-0.7-2.5,0s-0.7,1.8,0,2.5l0,0L114.6,39.8z M128.3,41.5
	h-27.5c-1,0-1.7,0.8-1.7,1.7c0,1,0.8,1.7,1.7,1.7h27.5c1.1,0,2-0.7,2-1.7c0-1.1-0.9-2-2-2C128.3,41.3,128.3,41.3,128.3,41.5
	L128.3,41.5z"/>
<path id="Rounded_Rectangle_2" class="st2" d="M6.8,0.8h147c3.3,0,6,2.7,6,6v44c0,3.3-2.7,6-6,6H6.8c-3.3,0-6-2.7-6-6v-44
	C0.8,3.4,3.4,0.8,6.8,0.8z"/>
</svg>
