<?xml version="1.0" encoding="utf-8"?>
<!-- Generator: Adobe Illustrator 21.1.0, SVG Export Plug-In . SVG Version: 6.00 Build 0)  -->
<svg version="1.1" id="Layer_1" xmlns="http://www.w3.org/2000/svg" xmlns:xlink="http://www.w3.org/1999/xlink" x="0px" y="0px"
	 viewBox="0 0 91 57" style="enable-background:new 0 0 91 57;" xml:space="preserve">
<style type="text/css">
	.st0{fill:#1EBCF2;}
	.st1{fill:#6D7073;}
	.st2{fill:none;stroke:#1EBCF2;stroke-width:1.5;stroke-linecap:round;}
	.st3{fill:#1F2123;stroke:#1EBCF2;stroke-width:1.5;stroke-linecap:round;}
	.st4{fill:#1EBCF2;stroke:#1F2123;stroke-width:1.5;stroke-linecap:round;}
	.st5{fill:#FFFFFF;}
	.st6{fill:none;stroke:#6D7073;stroke-miterlimit:10;}
</style>
<path id="Rounded_Rectangle_2_copy_4_" class="st6" d="M6.5,0.5h78c3.3,0,6,2.7,6,6v44c0,3.3-2.7,6-6,6h-78c-3.3,0-6-2.7-6-6v-44
	C0.5,3.2,3.2,0.5,6.5,0.5z"/>
<path class="st1" d="M45.3,39.5l11-11.2c0.7-0.7,0.7-1.8,0-2.5s-1.8-0.7-2.5,0l0,0l-6.8,7V14.5c0-0.9-0.7-1.7-1.6-1.7
	c0,0-0.1,0-0.1,0c-1,0-1.7,0.8-1.7,1.7c0,0,0,0,0,0v18.3l-7-7c-0.7-0.7-1.8-0.7-2.5,0s-0.7,1.8,0,2.5l0,0L45.3,39.5z M59,41.2H31.5
	c-1,0-1.7,0.8-1.7,1.7c0,1,0.8,1.7,1.7,1.7H59c1.1,0,2-0.7,2-1.7c0-1.1-0.9-2-2-2C59,41,59,41,59,41.2L59,41.2z"/>
</svg>
