<?xml version="1.0" encoding="utf-8"?>
<!-- Generator: Adobe Illustrator 16.0.0, SVG Export Plug-In . SVG Version: 6.00 Build 0)  -->
<!DOCTYPE svg PUBLIC "-//W3C//DTD SVG 1.1//EN" "http://www.w3.org/Graphics/SVG/1.1/DTD/svg11.dtd">
<svg version="1.1" id="Layer_1" xmlns="http://www.w3.org/2000/svg" xmlns:xlink="http://www.w3.org/1999/xlink" x="0px" y="0px"
	 width="12.009px" height="12.009px" viewBox="0 0 12.009 12.009" enable-background="new 0 0 12.009 12.009" xml:space="preserve">
<path fill="#FFFFFF" d="M12.009,0.5c0-0.273-0.227-0.5-0.502-0.5H7.505c-0.273,0-0.5,0.227-0.5,0.5v11.008
	c0,0.274,0.227,0.501,0.5,0.501h4.002c0.275,0,0.502-0.227,0.502-0.501V0.5z M5.003,0.5c0-0.273-0.227-0.5-0.5-0.5H0.501
	C0.227,0,0,0.227,0,0.5v11.008c0,0.274,0.227,0.501,0.501,0.501h4.002c0.273,0,0.5-0.227,0.5-0.501V0.5z"/>
</svg>
