<?xml version="1.0" encoding="utf-8"?>
<!-- Generator: Adobe Illustrator 16.0.0, SVG Export Plug-In . SVG Version: 6.00 Build 0)  -->
<!DOCTYPE svg PUBLIC "-//W3C//DTD SVG 1.1//EN" "http://www.w3.org/Graphics/SVG/1.1/DTD/svg11.dtd">
<svg version="1.1" id="Layer_1" xmlns="http://www.w3.org/2000/svg" xmlns:xlink="http://www.w3.org/1999/xlink" x="0px" y="0px"
	 width="52.013px" height="52.013px" viewBox="0 0 52.013 52.013" enable-background="new 0 0 52.013 52.013" xml:space="preserve">
<path fill-rule="evenodd" clip-rule="evenodd" fill="#13BAF6" d="M26.007,0c14.362,0,26.006,11.644,26.006,26.007
	c0,14.362-11.644,26.006-26.006,26.006C11.644,52.013,0,40.369,0,26.007C0,11.644,11.644,0,26.007,0z"/>
<path fill-rule="evenodd" clip-rule="evenodd" fill="#FFFFFF" d="M21.851,35.234c0.764,0.622,1.29,0.307,1.29-0.713V18.465
	c0-1.02-0.526-1.336-1.29-0.714l-4.316,3.476v10.532L21.851,35.234z M13.049,29.946c0,0.601,0.124,1.076,0.685,1.076h1.559v-9.06
	H14.08c-0.571,0-1.031,0.476-1.031,1.076V29.946z M26.27,26.493c0,0.747-0.37,1.381-0.886,1.767l1.424,1.551
	c0.863-0.792,1.413-1.981,1.413-3.317s-0.55-2.526-1.413-3.318l-1.424,1.551C25.899,25.111,26.27,25.745,26.27,26.493
	 M32.134,26.493c0,2.525-0.987,4.767-2.523,6.363l1.402,1.518c1.884-1.981,3.083-4.768,3.083-7.881c0-3.114-1.199-5.9-3.083-7.882
	l-1.402,1.518C31.146,21.726,32.134,23.979,32.134,26.493 M38.01,26.493c0,4.291-1.614,8.164-4.194,10.928l1.414,1.528
	c2.915-3.16,4.731-7.575,4.731-12.456c0-4.882-1.816-9.297-4.731-12.456l-1.414,1.528C36.396,18.328,38.01,22.201,38.01,26.493"/>
</svg>
