<?xml version="1.0" encoding="utf-8"?>
<!-- Generator: Adobe Illustrator 16.0.0, SVG Export Plug-In . SVG Version: 6.00 Build 0)  -->
<!DOCTYPE svg PUBLIC "-//W3C//DTD SVG 1.1//EN" "http://www.w3.org/Graphics/SVG/1.1/DTD/svg11.dtd">
<svg version="1.1" id="Layer_1" xmlns="http://www.w3.org/2000/svg" xmlns:xlink="http://www.w3.org/1999/xlink" x="0px" y="0px"
	 width="52.013px" height="52.012px" viewBox="0 0 52.013 52.012" enable-background="new 0 0 52.013 52.012" xml:space="preserve">
<path fill-rule="evenodd" clip-rule="evenodd" fill="#36B8EA" d="M26.007,0c14.362,0,26.006,11.643,26.006,26.006
	S40.369,52.012,26.007,52.012C11.644,52.012,0,40.369,0,26.006S11.644,0,26.007,0z"/>
<path fill-rule="evenodd" clip-rule="evenodd" fill="#FFFFFF" d="M21.352,34.747c0.764,0.622,1.29,0.307,1.29-0.713V17.978
	c0-1.02-0.526-1.336-1.29-0.714l-4.316,3.476v10.532L21.352,34.747z M12.55,29.459c0,0.601,0.124,1.076,0.685,1.076h1.559v-9.06
	h-1.212c-0.571,0-1.031,0.476-1.031,1.076V29.459z M25.771,26.006c0,0.747-0.37,1.381-0.886,1.767l1.424,1.551
	c0.863-0.792,1.413-1.981,1.413-3.317s-0.55-2.526-1.413-3.317l-1.424,1.55C25.4,24.624,25.771,25.258,25.771,26.006 M31.635,26.006
	c0,2.525-0.987,4.767-2.523,6.363l1.402,1.518c1.884-1.981,3.083-4.768,3.083-7.881c0-3.114-1.199-5.9-3.083-7.882l-1.402,1.518
	C30.647,21.238,31.635,23.492,31.635,26.006 M37.511,26.006c0,4.291-1.614,8.164-4.194,10.928l1.414,1.528
	c2.915-3.16,4.731-7.575,4.731-12.456s-1.816-9.297-4.731-12.456l-1.414,1.528C35.896,17.841,37.511,21.714,37.511,26.006"/>
</svg>
