<svg xmlns="http://www.w3.org/2000/svg" width="32" height="22">
    <path fill="#52B8F0" fill-rule="evenodd" d="M30.186 9.755c-.3 0-.541-.1-.723-.302-.181-.201-.272-.499-.272-.892V3.988c-1.249.959-2.09 1.438-2.523 1.438a.744.744 0 0 1-.549-.247.796.796 0 0 1-.24-.571c0-.251.079-.435.236-.553.158-.118.435-.271.834-.457.595-.28 1.07-.575 1.427-.885.356-.31.672-.656.947-1.039.276-.384.455-.619.539-.708.083-.088.241-.133.472-.133.26 0 .469.101.627.303.157.201.236.479.236.833v6.305c0 .988-.337 1.481-1.011 1.481zm-8.234 1.162l-.006.007a1.02 1.02 0 0 1-1.551-1.325L22 7.724H5.409c-1.356 0-2.034.977-2.034 2.033V11.311a1.016 1.016 0 1 1-2.034-.029V9.757c0-2.064 1.644-4.066 4.068-4.066H22l-1.605-1.89a1.017 1.017 0 0 1 .651-1.684c.345-.04.686.097.906.365l3.051 3.558c.324.38.324.939 0 1.319l-3.051 3.558zM5.159 16.874a2.542 2.542 0 1 1-5.083-.001 2.542 2.542 0 0 1 5.083.001zm5.427-3.702l.006-.007a1.02 1.02 0 0 1 1.551 1.326l-1.605 1.874h16.59c1.356 0 2.034-.977 2.034-2.033v-1.525-.029a1.017 1.017 0 0 1 2.034.029v1.525c0 2.064-1.643 4.066-4.068 4.066h-16.59l1.605 1.891a1.015 1.015 0 0 1-.652 1.683 1.015 1.015 0 0 1-.905-.365l-3.052-3.558a1.019 1.019 0 0 1 0-1.319l3.052-3.558z"/>
</svg>
