<?xml version="1.0" encoding="utf-8"?>
<!-- Generator: Adobe Illustrator 16.0.0, SVG Export Plug-In . SVG Version: 6.00 Build 0)  -->
<!DOCTYPE svg PUBLIC "-//W3C//DTD SVG 1.1//EN" "http://www.w3.org/Graphics/SVG/1.1/DTD/svg11.dtd">
<svg version="1.1" id="Layer_1" xmlns="http://www.w3.org/2000/svg" xmlns:xlink="http://www.w3.org/1999/xlink" x="0px" y="0px"
	 width="11.999px" height="11.999px" viewBox="0 0 11.999 11.999" enable-background="new 0 0 11.999 11.999" xml:space="preserve">
<g>
	<g>
		<path fill="#38B8EA" d="M7.214,6l4.569-4.569c0.288-0.288,0.288-0.762-0.001-1.05l-0.165-0.164c-0.289-0.288-0.762-0.288-1.05,0
			L6,4.785L1.431,0.216c-0.289-0.288-0.761-0.288-1.05,0L0.217,0.381c-0.288,0.29-0.288,0.762,0.001,1.051l4.567,4.567l-4.568,4.569
			c-0.289,0.29-0.289,0.763,0,1.051l0.164,0.164c0.288,0.288,0.761,0.288,1.05,0L6,7.214l4.569,4.569
			c0.288,0.288,0.76,0.288,1.049,0l0.164-0.165c0.289-0.288,0.289-0.762,0-1.05L7.214,6z"/>
	</g>
</g>
</svg>
