<svg xmlns="http://www.w3.org/2000/svg" width="30" height="15">
    <path fill="#FFF" fill-rule="evenodd" d="M28.861 3.415l-2.758 3.696 3.11 4.435c.487.694.73 1.216.73 1.567 0 .359-.151.668-.453.927-.302.259-.676.388-1.121.388-.394 0-.728-.113-1-.338-.273-.226-.586-.585-.938-1.078l-2.493-3.646-2.556 3.646c-.369.51-.681.873-.937 1.09-.256.217-.582.326-.976.326-.437 0-.808-.136-1.114-.407-.307-.271-.46-.583-.46-.934 0-.359.235-.872.705-1.541l3.11-4.435-2.757-3.696c-.479-.609-.718-1.14-.718-1.591 0-.351.143-.655.428-.914.286-.259.659-.389 1.121-.389.403 0 .736.113 1 .339.265.225.573.58.926 1.065l2.228 3.031 2.165-3.031c.361-.502.674-.861.938-1.078.265-.217.594-.326.989-.326.453 0 .828.128 1.126.383.298.254.447.561.447.92 0 .259-.061.508-.182.745a5.657 5.657 0 0 1-.56.846zm-14.098 9.59a.538.538 0 0 1 .248.466.606.606 0 0 1-.203.452c-.135.128-.331.192-.589.192h-3.902c-.3 0-.535-.072-.706-.215a.655.655 0 0 1-.257-.519c0-.215.075-.419.225-.613a3.71 3.71 0 0 1 .585-.586c.239-.197.602-.48 1.088-.85l.733-.506c.446-.307.761-.562.944-.765a.98.98 0 0 0 .274-.671.76.76 0 0 0-.31-.622 1.199 1.199 0 0 0-.769-.246c-.336 0-.585.062-.746.188-.162.125-.3.312-.414.559a2.312 2.312 0 0 1-.333.555c-.108.122-.281.183-.521.183a.814.814 0 0 1-.522-.17c-.144-.113-.216-.274-.216-.483 0-.298.102-.6.306-.904.204-.304.517-.555.94-.752.422-.196.936-.295 1.542-.295.629 0 1.145.09 1.547.269.401.179.698.417.89.715.192.299.288.621.288.967 0 .388-.116.739-.347 1.051-.23.314-.572.631-1.025.954-.452.322-.849.601-1.191.836-.342.236-.594.449-.756.64h2.491c.306 0 .541.057.706.17zm-10.579 1.11c-.204.328-.426.492-.666.492a.692.692 0 0 1-.422-.157.487.487 0 0 1-.207-.407c0-.119.063-.271.189-.456L10.631 1.47c.138-.239.254-.409.346-.51.093-.102.236-.152.428-.152.179 0 .322.052.427.157a.557.557 0 0 1 .157.415c0 .144-.105.382-.315.716l-7.49 12.019zm-.738-6.363a.82.82 0 0 1-.593-.224c-.156-.149-.234-.355-.234-.617V3.134c-.839.513-1.406.77-1.699.77a.696.696 0 0 1-.472-.175.541.541 0 0 1-.203-.425c0-.304.276-.542.828-.715.389-.132.708-.287.957-.466a3.65 3.65 0 0 0 .666-.617c.194-.233.34-.39.436-.47.096-.081.237-.121.422-.121.222 0 .401.073.535.219.135.147.203.345.203.595v5.003c0 .68-.282 1.02-.846 1.02z"/>
</svg>
