<svg xmlns="http://www.w3.org/2000/svg" width="51" height="21">
    <defs>
        <filter id="a" width="19" height="19" x="32" y="2" filterUnits="userSpaceOnUse">
            <feOffset dy="1" in="SourceAlpha"/>
            <feGaussianBlur result="blurOut" stdDeviation="1"/>
            <feFlood flood-color="#020202" result="floodOut"/>
            <feComposite in="floodOut" in2="blurOut" operator="atop"/>
            <feComponentTransfer>
                <feFuncA slope=".58" type="linear"/>
            </feComponentTransfer>
            <feMerge>
                <feMergeNode/>
                <feMergeNode in="SourceGraphic"/>
            </feMerge>
        </filter>
    </defs>
    <path fill="#52B8F0" fill-rule="evenodd" d="M10 0h31c5.523 0 10 4.477 10 10s-4.477 10-10 10H10C4.477 20 0 15.523 0 10S4.477 0 10 0z"/>
    <path fill="#FFF" fill-rule="evenodd" d="M41 2.501A7.498 7.498 0 0 1 48.499 10 7.498 7.498 0 0 1 41 17.499 7.498 7.498 0 0 1 33.501 10 7.498 7.498 0 0 1 41 2.501z" filter="url(#a)"/>
    <path fill="#FFF" fill-rule="evenodd" d="M24.791 15.48v-4.847c0-.61-.14-1.066-.417-1.367-.278-.301-.714-.451-1.306-.451-.784 0-1.358.212-1.723.636-.364.423-.547 1.123-.547 2.098v3.931h-1.134V7.988h.922l.185 1.025h.055c.232-.369.558-.655.977-.858a3.175 3.175 0 0 1 1.402-.304c.902 0 1.581.218 2.037.653.455.435.683 1.131.683 2.088v4.888h-1.134zm-11.772.137c-1.472 0-2.608-.45-3.408-1.351-.799-.899-1.199-2.17-1.199-3.811 0-1.626.401-2.888 1.203-3.783.802-.896 1.941-1.343 3.418-1.343 1.435 0 2.556.455 3.363 1.367.807.911 1.21 2.169 1.21 3.773 0 1.6-.404 2.858-1.213 3.774-.809.916-1.934 1.374-3.374 1.374zm2.512-8.207c-.563-.695-1.395-1.042-2.498-1.042-1.108 0-1.95.349-2.526 1.049-.577.7-.865 1.717-.865 3.052 0 1.354.288 2.38.865 3.08.576.699 1.414 1.049 2.512 1.049 1.108 0 1.944-.349 2.509-1.046.565-.697.848-1.725.848-3.083 0-1.344-.282-2.364-.845-3.059z"/>
</svg>
