<svg xmlns="http://www.w3.org/2000/svg" width="51" height="21">
    <defs>
        <filter id="a" width="19" height="19" x="1" y="2" filterUnits="userSpaceOnUse">
            <feOffset dy="1" in="SourceAlpha"/>
            <feGaussianBlur result="blurOut" stdDeviation="1"/>
            <feFlood flood-color="#020202" result="floodOut"/>
            <feComposite in="floodOut" in2="blurOut" operator="atop"/>
            <feComponentTransfer>
                <feFuncA slope=".58" type="linear"/>
            </feComponentTransfer>
            <feMerge>
                <feMergeNode/>
                <feMergeNode in="SourceGraphic"/>
            </feMerge>
        </filter>
    </defs>
    <path fill="#3E4145" fill-rule="evenodd" d="M10 0h31c5.523 0 10 4.477 10 10s-4.477 10-10 10H10C4.477 20 0 15.523 0 10S4.477 0 10 0z"/>
    <path fill="#FFF" fill-rule="evenodd" d="M10 2.501A7.498 7.498 0 0 1 17.499 10 7.5 7.5 0 1 1 10 2.501z" filter="url(#a)"/>
    <path fill="#FFF" fill-rule="evenodd" d="M41.256 5.576c-.437-.141-.811-.211-1.121-.211-.428 0-.745.142-.95.427-.205.285-.308.741-.308 1.37v.486h1.908v.882h-1.908v6.61h-1.134V8.53h-1.34v-.513l1.34-.41V7.19c0-1.841.804-2.762 2.413-2.762.396 0 .861.08 1.394.239l-.294.909zm-5.865-.211c-.428 0-.745.142-.95.427-.205.285-.308.741-.308 1.37v.486h1.908v.882h-1.908v6.61h-1.134V8.53h-1.34v-.513l1.34-.41V7.19c0-1.841.804-2.762 2.413-2.762.396 0 .861.08 1.394.239l-.294.909c-.437-.141-.811-.211-1.121-.211zm-9.372 9.912c-1.472 0-2.608-.45-3.408-1.35-.799-.9-1.199-2.171-1.199-3.811 0-1.627.401-2.889 1.203-3.784.802-.896 1.941-1.343 3.418-1.343 1.435 0 2.556.455 3.363 1.367.807.911 1.21 2.169 1.21 3.773 0 1.6-.404 2.858-1.213 3.774-.809.916-1.934 1.374-3.374 1.374zm2.512-8.207c-.563-.695-1.395-1.042-2.498-1.042-1.108 0-1.95.349-2.526 1.049-.577.7-.865 1.717-.865 3.052 0 1.354.288 2.38.865 3.08.576.699 1.414 1.049 2.512 1.049 1.108 0 1.944-.349 2.509-1.046.565-.697.848-1.725.848-3.083 0-1.344-.282-2.364-.845-3.059z"/>
</svg>
